# xmcd
#
# Track frame offsets:
#	182
#	21927
#	43402
#	59920
#	80117
#	97382
#	113557
#	135265
#	154707
#	167000
#
# Disc length: 2552 seconds
#
# Revision: 1
# Processed by: cddbd v1.4PL0 Copyright (c) Steve Scherf et al.
# Submitted via: audiograbber 1.81.02
#
DISCID=8b09f60a
DTITLE=Karat - Fünfte Jahreszeit
DYEAR=1986
DGENRE=Blues
TTITLE0=Fetzen Aus Samt
TTITLE1=Fünfte Jahreszeit
TTITLE2=Der Fahrradverkäufer
TTITLE3=In Deiner Gallerie
TTITLE4=Hab Den Mond Mit Der Hand Berührt
TTITLE5=Der Doppelgänger
TTITLE6=Aus Zweiter Hand
TTITLE7=Er Kam, Sah Und Siegte
TTITLE8=Der Liebe Fluch
TTITLE9=Die Glocke Zweitausend
EXTD=
EXTT0=
EXTT1=
EXTT2=
EXTT3=
EXTT4=
EXTT5=
EXTT6=
EXTT7=
EXTT8=
EXTT9=
PLAYORDER=
